<svg width="136" height="90" viewBox="0 0 136 90" fill="none" xmlns="http://www.w3.org/2000/svg"><path d="M11.704 53.952V88H.568V.96h27.264q12.288 0 18.944 6.528 6.784 6.4 6.784 17.152v5.504q0 7.68-3.584 13.312-3.456 5.632-9.984 8.32a268 268 0 0 1 10.24 17.92A275 275 0 0 1 58.936 88h-12.8Q38.84 70.592 29.112 53.952zM27.832 11.2H11.704v32.512h16.128q6.528 0 10.368-3.584 3.84-3.712 3.84-9.984V24.64q0-6.4-3.84-9.856-3.84-3.585-10.368-3.584M75.651.96h11.52v55.808q0 10.496 4.352 16.384 4.48 5.888 13.824 5.888 9.473 0 13.824-5.888 4.352-5.888 4.352-16.384V.96h11.52v55.808q0 15.232-7.424 23.936-7.424 8.576-22.272 8.576-14.975 0-22.4-8.576Q75.651 72 75.651 56.768z" fill="url(#a)"/><defs><linearGradient id="a" x1="81" y1="-37" x2="81" y2="103" gradientUnits="userSpaceOnUse"><stop stop-color="#8A88FB"/><stop offset="1" stop-color="#2B35C0"/></linearGradient></defs></svg>