<svg width="422" height="173" viewBox="0 0 422 173" fill="none" xmlns="http://www.w3.org/2000/svg"><path d="M252.704 99.952V134h-11.136V46.96h27.264q12.288 0 18.944 6.528 6.784 6.4 6.784 17.152v5.504q0 7.68-3.584 13.312-3.456 5.632-9.984 8.32a268 268 0 0 1 10.24 17.92A275 275 0 0 1 299.936 134h-12.8q-7.296-17.408-17.024-34.048zM268.832 57.2h-16.128v32.512h16.128q6.528 0 10.368-3.584 3.84-3.712 3.84-9.984V70.64q0-6.4-3.84-9.856-3.84-3.584-10.368-3.584m47.819-10.24h11.52v55.808q0 10.496 4.352 16.384 4.48 5.888 13.824 5.888 9.472 0 13.824-5.888t4.352-16.384V46.96h11.52v55.808q0 15.232-7.424 23.936-7.423 8.576-22.272 8.576-14.976 0-22.4-8.576-7.296-8.704-7.296-23.936z" fill="url(#a)"/><path d="M141.999 81.997c0-.856-.492-1.427-1.23-1.427h-9.837c-.738 0-1.23.57-1.23 1.427 0 .855.492 1.426 1.23 1.426h9.837c.738 0 1.23-.57 1.23-1.427m-61.485 23.105c.738 0 1.23-.57 1.23-1.426V85.134c0-.57.246-5.705 5.165-5.705.738 0 1.23-.57 1.23-1.426s-.492-1.426-1.23-1.426c-5.903 0-7.624 5.42-7.624 8.557v18.542c0 .57.492 1.426 1.23 1.426m23.856-30.807h61.239c2.213 0 4.427-1.712 5.164-3.994.492-1.711.492-3.423-.246-4.85-.491-1.425-1.721-2.852-3.197-3.422-2.951-1.141-8.116-3.138-15.248-4.85-.738-.285-1.23.286-1.475 1.141-.246.856.245 1.427.983 1.712 7.132 1.712 12.051 3.423 15.002 4.85.738.284 1.476.855 1.722 1.71a4.56 4.56 0 0 1 0 2.568c-.246 1.426-1.476 2.282-2.705 2.282h-61.24c-.737 0-1.229.57-1.229 1.426s.492 1.427 1.229 1.427m46.974 3.708c-.492-.285-1.229 0-1.721.57l-11.559 24.247c-.246.571 0 1.426.492 1.997.246 0 .491.285.491.285.492 0 .738-.285.984-.856l11.559-24.531c.492-.571.492-1.427-.246-1.712" fill="url(#b)"/><path d="M135.604 66.308c-.737 0-1.229.57-1.229 1.426s.492 1.427 1.229 1.427h5.411c.492 0 .738-.286.984-.856l5.164-10.555c.246-.57 0-1.426-.491-1.996-.492-.286-1.23 0-1.722.57l-4.673 9.984zm-55.09 45.641h66.649c.738 0 1.23-.571 1.23-1.427 0-.855-.492-1.426-1.23-1.426H80.514c-.737 0-1.23.571-1.23 1.426 0 .856.493 1.427 1.23 1.427m-27.299-11.125c-4.918 0-9.1 4.849-9.1 10.554s4.182 10.554 9.1 10.554c4.92 0 9.1-4.849 9.1-10.554s-4.18-10.554-9.1-10.554m0 18.256c-3.689 0-6.64-3.423-6.64-7.702s2.951-7.702 6.64-7.702c3.69 0 6.64 3.423 6.64 7.702s-2.95 7.702-6.64 7.702m122.231-18.256c-4.919 0-9.099 4.849-9.099 10.554s4.18 10.554 9.099 10.554 9.1-4.849 9.1-10.554-4.181-10.554-9.1-10.554m0 18.256c-3.689 0-6.64-3.423-6.64-7.702s2.951-7.702 6.64-7.702 6.641 3.423 6.641 7.702-2.952 7.702-6.641 7.702" fill="url(#c)"/><path d="M175.446 108.525c-1.475 0-2.459 1.141-2.459 2.853 0 1.711.984 2.852 2.459 2.852s2.46-1.141 2.46-2.852c0-1.712-1.23-2.853-2.46-2.853m-122.23 0c-1.476 0-2.46 1.141-2.46 2.853 0 1.711.984 2.852 2.46 2.852s2.459-1.141 2.459-2.852c0-1.712-1.23-2.853-2.46-2.853m58.532-51.916c3.69-.285 16.232-1.141 27.791.57h.246c.492 0 1.23-.57 1.23-1.14 0-.856-.492-1.427-.984-1.712-11.805-1.997-24.593-.856-28.283-.57-.737 0-1.229.855-1.229 1.426-.246.855.492 1.426 1.229 1.426M65.02 80.856 71.66 80c.739 0 1.23-.856.984-1.712 0-.855-.737-1.426-1.475-1.14l-6.64.855c-.738 0-1.23.856-.984 1.712.492.57.983 1.14 1.475 1.14" fill="url(#d)"/><path d="M223.158 97.26h-2.951v-5.706c0-.855-.246-1.426-.738-1.996-3.935-4.28-7.87-7.988-12.051-11.696h7.624c1.968 0 9.838-.57 12.297-8.843.492-1.426-.246-3.138-1.476-3.708s-2.705.285-3.197 1.711c-1.721 5.42-7.624 5.135-8.116 5.135h-13.772c-39.596-30.522-78.946-27.955-91.489-26.243-3.443.57-6.64 1.996-9.346 4.279L79.777 66.452c-1.722 1.426-3.935 2.567-6.149 2.567l-50.417 6.276c-3.197.285-6.148 2.852-7.378 6.275l-3.443 9.7H9.439c-2.214 0-4.181 1.14-5.657 2.852-1.476 1.996-1.968 4.564-1.722 7.131.492 3.994 3.935 7.131 7.624 7.131h2.214l5.41 8.843c1.722 2.853 4.673 4.85 7.625 4.85h11.805c3.197 6.846 9.345 11.695 16.477 11.695s13.527-4.849 16.478-11.695h89.029c3.198 6.846 9.592 11.695 16.724 11.695s13.281-4.849 16.232-11.695h8.854c10.329 0 15.248-4.564 17.215-7.132h5.165c2.951 0 5.411-2.852 5.411-6.275v-5.705c.246-2.853-2.214-5.706-5.165-5.706m-16.232 2.852h-1.967l3.197-5.134h7.132v4.849h-8.362zM20.26 84.138c.492-1.712 1.721-2.568 3.197-2.853h.738l-2.951 8.558c-.246.856 0 1.426.737 1.997h.492c.492 0 .984-.286 1.23-.856L27.146 81l44.269-5.705H91.09c4.672 0 9.099-2.853 11.313-7.702l4.673-9.699c.246-.57 0-1.426-.492-1.996-.492-.286-1.23 0-1.722.57l-4.427 9.699c-1.967 3.993-5.41 6.275-9.345 6.275H80.76c.492-.285 1.23-.855 1.722-1.14l20.167-16.26c2.213-1.712 4.673-2.853 7.132-3.138 13.772-1.997 61.73-4.564 105.015 40.506h-7.378c-.492 0-.738.285-.984.57l-4.672 7.132h-6.149c-3.935-8.558-11.559-14.548-20.659-14.548-12.788 0-23.118 11.98-23.118 27.099 0 0 0 1.997-1.229 3.709-.246.285-.492.285-.492.57H78.301c-.246-.285-.492-.285-.738-.57-1.23-1.427-1.23-3.424-1.23-3.709 0-14.833-10.329-26.814-23.118-26.814-6.886 0-13.034 3.423-17.215 8.843H16.57zM6.733 100.683c0-.856 0-1.712.492-2.283.492-.57 1.23-1.14 1.968-1.14h14.264l-1.968 5.705H9.44c-1.23 0-2.46-.856-2.706-2.282m14.51 13.692-5.164-8.558h6.148c.492 0 .984-.285 1.23-.856l2.705-7.701h7.87c-2.46 4.278-4.18 9.698-4.18 15.403 0 0 0 1.997-1.23 3.709-.246.285-.492.285-.492.57h-3.443c-1.23-.285-2.706-1.141-3.443-2.567m31.972 13.977c-7.624 0-13.772-7.131-13.772-15.974s6.148-15.974 13.772-15.974 13.773 7.131 13.773 15.974-6.149 15.974-13.773 15.974m0-37.653c-10.329 0-18.69 9.698-18.69 21.679 0 1.426.245 2.853.245 4.279h-3.197c.984-1.997.984-4.279.984-4.279 0-13.122 9.345-23.961 20.658-23.961s20.66 10.84 20.66 23.961c0 0 0 2.282.983 4.279h-3.443c.246-1.426.246-2.853.246-4.279.246-11.981-8.116-21.68-18.446-21.68m122.231 37.653c-7.624 0-13.772-7.131-13.772-15.974s6.148-15.974 13.772-15.974 13.773 7.131 13.773 15.974-6.149 15.974-13.773 15.974m0-37.653c-10.329 0-18.691 9.698-18.691 21.679 0 1.426.246 2.853.246 4.279h-3.689c.984-1.997.984-4.279.984-4.279 0-13.122 9.345-23.961 20.658-23.961s20.659 10.84 20.659 23.961c0 0 0 2.282.984 4.279H193.4c.246-1.426.246-2.853.246-4.279.491-11.981-7.87-21.68-18.2-21.68m48.204 18.256c0 .285-.246.57-.492.57h-18.691c-.738 0-1.23.571-1.23 1.427 0 .855.492 1.426 1.23 1.426h9.099c-1.721 1.711-5.41 4.279-12.788 4.279h-.492c-.246-.285-.492-.285-.738-.571-1.23-1.426-1.23-3.423-1.23-3.708 0-3.423-.491-6.561-1.475-9.699h26.315c.246 0 .492.286.492.571z" fill="url(#e)"/><defs><linearGradient id="a" x1="322" y1="9" x2="322" y2="149" gradientUnits="userSpaceOnUse"><stop stop-color="#8A88FB"/><stop offset="1" stop-color="#2B35C0"/></linearGradient><linearGradient id="b" x1="125.2" y1="57.105" x2="125.2" y2="105.102" gradientUnits="userSpaceOnUse"><stop stop-color="#BAC"/><stop offset="1" stop-color="#2B35C0"/></linearGradient><linearGradient id="c" x1="114.331" y1="55.642" x2="114.331" y2="121.932" gradientUnits="userSpaceOnUse"><stop stop-color="#BAC"/><stop offset="1" stop-color="#2B35C0"/></linearGradient><linearGradient id="d" x1="114.331" y1="53.173" x2="114.331" y2="114.23" gradientUnits="userSpaceOnUse"><stop stop-color="#BAC"/><stop offset="1" stop-color="#2B35C0"/></linearGradient><linearGradient id="e" x1="115.17" y1="45" x2="115.17" y2="133.772" gradientUnits="userSpaceOnUse"><stop stop-color="#8A88FB"/><stop offset="1" stop-color="#2B35C0"/></linearGradient></defs></svg>