<svg width="300" height="300" viewBox="0 0 300 300" fill="none" xmlns="http://www.w3.org/2000/svg"><circle cx="150" cy="150" r="150" fill="#8A88FB" fill-opacity=".8"/><circle cx="150" cy="150" r="146" stroke="#6C69FE" stroke-opacity=".23" stroke-width="8"/><path d="M277.5 153.035c0 69.035-55.964 125-125 125s-125-55.965-125-125c0-69.036 55.964-125 125-125s125 55.964 125 125" fill="#8A88FB"/><path d="M274.5 153.035c0 67.378-54.621 122-122 122s-122-54.622-122-122c0-67.379 54.621-122 122-122s122 54.621 122 122Z" stroke="#6967FF" stroke-opacity=".66" stroke-width="6"/><path d="m136.933 229.215 94.284-58.353c13.757-8.515 13.535-28.601-.407-36.809l-95.551-56.255c-14.424-8.493-32.591 2.027-32.406 18.765l1.266 114.608c.185 16.737 18.581 26.853 32.814 18.044Z" fill="url(#a)" stroke="url(#b)" stroke-width="7"/><defs><linearGradient id="a" x1="254.727" y1="152.195" x2="57.739" y2="154.372" gradientUnits="userSpaceOnUse"><stop offset=".242" stop-color="#C02B2B"/><stop offset="1" stop-color="#8A88FB"/></linearGradient><linearGradient id="b" x1="254.727" y1="152.195" x2="106.986" y2="153.828" gradientUnits="userSpaceOnUse"><stop stop-color="#666"/><stop offset="1"/></linearGradient></defs></svg>