<svg xmlns="http://www.w3.org/2000/svg" viewBox="0 0 100 125" xml:space="preserve">
  <switch>
    <g fill="#14195a">
      <path d="M60.9 47.7c0-.3-.2-.5-.5-.5h-4c-.3 0-.5.2-.5.5s.2.5.5.5h4c.3 0 .5-.2.5-.5m-25 8.1c.3 0 .5-.2.5-.5v-6.5c0-.2.1-2 2.1-2 .3 0 .5-.2.5-.5s-.2-.5-.5-.5c-2.4 0-3.1 1.9-3.1 3v6.5c0 .2.2.5.5.5M45.6 45h24.9c.9 0 1.8-.6 2.1-1.4.2-.6.2-1.2-.1-1.7-.2-.5-.7-1-1.3-1.2-1.2-.4-3.3-1.1-6.2-1.7-.3-.1-.5.1-.6.4s.1.5.4.6c2.9.6 4.9 1.2 6.1 1.7.3.1.6.3.7.6q.15.45 0 .9c-.1.5-.6.8-1.1.8H45.6c-.3 0-.5.2-.5.5s.2.5.5.5m19.1 1.3c-.2-.1-.5 0-.7.2L59.3 55c-.1.2 0 .5.2.7.1 0 .2.1.2.1.2 0 .3-.1.4-.3l4.7-8.6c.2-.2.2-.5-.1-.6"/>
      <path d="M58.3 42.2c-.3 0-.5.2-.5.5s.2.5.5.5h2.2c.2 0 .3-.1.4-.3l2.1-3.7c.1-.2 0-.5-.2-.7-.2-.1-.5 0-.7.2l-1.9 3.5zm-22.4 16H63c.3 0 .5-.2.5-.5s-.2-.5-.5-.5H35.9c-.3 0-.5.2-.5.5s.2.5.5.5m-11.1-3.9c-2 0-3.7 1.7-3.7 3.7s1.7 3.7 3.7 3.7 3.7-1.7 3.7-3.7-1.7-3.7-3.7-3.7m0 6.4c-1.5 0-2.7-1.2-2.7-2.7s1.2-2.7 2.7-2.7 2.7 1.2 2.7 2.7-1.2 2.7-2.7 2.7m49.7-6.4c-2 0-3.7 1.7-3.7 3.7s1.7 3.7 3.7 3.7 3.7-1.7 3.7-3.7-1.7-3.7-3.7-3.7m0 6.4c-1.5 0-2.7-1.2-2.7-2.7s1.2-2.7 2.7-2.7 2.7 1.2 2.7 2.7-1.2 2.7-2.7 2.7"/>
      <path d="M74.5 57c-.6 0-1 .4-1 1s.4 1 1 1 1-.4 1-1-.5-1-1-1m-49.7 0c-.6 0-1 .4-1 1s.4 1 1 1 1-.4 1-1-.5-1-1-1m23.8-18.2c1.5-.1 6.6-.4 11.3.2h.1c.2 0 .5-.2.5-.4 0-.3-.2-.5-.4-.6-4.8-.7-10-.3-11.5-.2-.3 0-.5.3-.5.5-.1.3.2.5.5.5m-19 8.5s.1 0 0 0l2.7-.3c.3 0 .5-.3.4-.6 0-.3-.3-.5-.6-.4l-2.7.3c-.3 0-.5.3-.4.6.2.2.4.4.6.4"/>
      <path d="M93.9 52.7h-1.2v-2c0-.3-.1-.5-.3-.7-1.6-1.5-3.2-2.8-4.9-4.1h3.1c.8 0 4-.2 5-3.1.2-.5-.1-1.1-.6-1.3s-1.1.1-1.3.6c-.7 1.9-3.1 1.8-3.3 1.8h-5.6c-16.1-10.7-32.1-9.8-37.2-9.2-1.4.2-2.7.7-3.8 1.5l-8.2 5.7c-.7.5-1.6.9-2.5.9L12.6 45c-1.3.1-2.5 1-3 2.2l-1.4 3.4H7c-.9 0-1.7.4-2.3 1-.6.7-.8 1.6-.7 2.5.2 1.4 1.6 2.5 3.1 2.5H8l2.2 3.1c.7 1 1.9 1.7 3.1 1.7h4.8c1.3 2.4 3.8 4.1 6.7 4.1s5.5-1.7 6.7-4.1h36.2c1.3 2.4 3.8 4.1 6.7 4.1s5.5-1.7 6.7-4.1h3.6c4.2 0 6.2-1.6 7-2.5h2.1c1.2 0 2.2-1 2.2-2.2v-2c.1-1-.9-2-2.1-2m-6.6 1h-.8l1.3-1.8h2.9v1.7h-3.4zm-75.9-5.6c.2-.6.7-.9 1.3-1h.3l-1.2 3c-.1.3 0 .5.3.7h.2c.2 0 .4-.1.5-.3l1.4-3.5 18-2h8c1.9 0 3.7-1 4.6-2.7l1.9-3.4c.1-.2 0-.5-.2-.7-.2-.1-.5 0-.7.2L44 41.8c-.8 1.4-2.2 2.2-3.8 2.2H36c.2-.1.5-.3.7-.4l8.2-5.7c.9-.6 1.9-1 2.9-1.1 5.6-.7 25.1-1.6 42.7 14.2h-3c-.2 0-.3.1-.4.2l-1.9 2.5h-2.5c-1.6-3-4.7-5.1-8.4-5.1-5.2 0-9.4 4.2-9.4 9.5 0 0 0 .7-.5 1.3-.1.1-.2.1-.2.2H35c-.1-.1-.2-.1-.3-.2-.5-.5-.5-1.2-.5-1.3 0-5.2-4.2-9.4-9.4-9.4-2.8 0-5.3 1.2-7 3.1H9.9zm-5.5 5.8c0-.3 0-.6.2-.8s.5-.4.8-.4h5.8l-.8 2H7c-.5 0-1-.3-1.1-.8m5.9 4.8-2.1-3h2.5c.2 0 .4-.1.5-.3l1.1-2.7H17c-1 1.5-1.7 3.4-1.7 5.4 0 0 0 .7-.5 1.3-.1.1-.2.1-.2.2h-1.4c-.5-.1-1.1-.4-1.4-.9m13 4.9c-3.1 0-5.6-2.5-5.6-5.6s2.5-5.6 5.6-5.6 5.6 2.5 5.6 5.6-2.5 5.6-5.6 5.6m0-13.2c-4.2 0-7.6 3.4-7.6 7.6 0 .5.1 1 .1 1.5H16c.4-.7.4-1.5.4-1.5 0-4.6 3.8-8.4 8.4-8.4s8.4 3.8 8.4 8.4c0 0 0 .8.4 1.5h-1.4c.1-.5.1-1 .1-1.5.1-4.2-3.3-7.6-7.5-7.6m49.7 13.2c-3.1 0-5.6-2.5-5.6-5.6s2.5-5.6 5.6-5.6 5.6 2.5 5.6 5.6-2.5 5.6-5.6 5.6m0-13.2c-4.2 0-7.6 3.4-7.6 7.6 0 .5.1 1 .1 1.5h-1.5c.4-.7.4-1.5.4-1.5 0-4.6 3.8-8.4 8.4-8.4s8.4 3.8 8.4 8.4c0 0 0 .8.4 1.5h-1.3c.1-.5.1-1 .1-1.5.2-4.2-3.2-7.6-7.4-7.6m19.6 6.4c0 .1-.1.2-.2.2h-7.6c-.3 0-.5.2-.5.5s.2.5.5.5H90c-.7.6-2.2 1.5-5.2 1.5h-.2c-.1-.1-.2-.1-.3-.2-.5-.5-.5-1.2-.5-1.3 0-1.2-.2-2.3-.6-3.4h10.7c.1 0 .2.1.2.2z"/>
    </g>
  </switch>
</svg>
